<?xml version="1.0" encoding="UTF-8"?>
<svg width="16px" height="10px" viewBox="0 0 16 10" version="1.1" xmlns="http://www.w3.org/2000/svg" xmlns:xlink="http://www.w3.org/1999/xlink">
    <!-- Generator: Sketch 46.2 (44496) - http://www.bohemiancoding.com/sketch -->
    <title>Combined Shape Copy</title>
    <desc>Created with Sketch.</desc>
    <defs></defs>
    <g id="Symbols" stroke="none" stroke-width="1" fill="none" fill-rule="evenodd">
        <g id="Icons/Card" transform="translate(-4.000000, -7.000000)" fill="#FFFFFF">
            <path d="M5,7 L19,7 C19.5522847,7 20,7.44771525 20,8 L20,16 C20,16.5522847 19.5522847,17 19,17 L5,17 C4.44771525,17 4,16.5522847 4,16 L4,8 C4,7.44771525 4.44771525,7 5,7 Z M12.0165477,8.99514622 L17.7100138,8.99514622 C18.0958481,8.99514622 18.4817138,8.99218461 18.8674855,8.99670496 C18.9881682,8.99810783 19.0375868,8.95524246 19.0335495,8.8330372 C19.0274152,8.64630009 19.0321411,8.45918887 19.0320472,8.27223353 C19.0319533,8.02196214 19.0318594,8.02174392 18.7842657,8.02174392 C14.2847327,8.02168157 9.78523106,8.02171275 5.28569809,8.02171275 C5.25443199,8.02171275 5.22294681,8.02401968 5.19189979,8.02149452 C5.07854062,8.0122356 5.03090598,8.06118006 5.03391053,8.17599689 C5.03891811,8.36800255 5.03500594,8.56025761 5.03513113,8.75241914 C5.03525632,8.9948033 5.03538151,8.99508387 5.27508828,8.99508387 C7.52224143,8.9951774 9.76939458,8.99514622 12.0165477,8.99514622 Z M12.0173931,16.0144746 C14.28612,16.0144746 16.5548157,16.0145688 18.8235427,16.014349 C19.0308065,16.014349 19.0348761,16.0103295 19.0349074,15.8041429 C19.0351578,14.2764584 19.0351578,12.7487739 19.0348761,11.2210895 C19.0348448,11.0173208 19.0318083,11.0146202 18.8197862,11.0146202 C14.2980156,11.0144632 9.77624493,11.0144632 5.25447431,11.0145888 C5.03587839,11.0145888 5.03525231,11.0152168 5.03522101,11.2326769 C5.03503318,12.7394475 5.03509579,14.2461867 5.03512709,15.7529573 C5.0351584,16.0143176 5.03528361,16.0144746 5.2895035,16.0144746 C7.53212292,16.014506 9.77477365,16.014506 12.0173931,16.0144746 Z M14.5139835,12.0091349 C14.8187066,11.9914715 15.1000849,12.0843818 15.3494377,12.2637597 C15.4595894,12.3429831 15.5379016,12.3387291 15.6502545,12.2639138 C16.5583165,11.6592879 17.7670714,12.1432907 17.9692384,13.2095088 C18.1799621,14.3208257 17.2655136,15.0136147 16.5242138,14.9962595 C16.2026873,14.9887379 15.908722,14.9240645 15.6502856,14.7366717 C15.5403198,14.6569551 15.4618526,14.6617023 15.3495307,14.7365176 C14.4472042,15.3373519 13.2443088,14.8616413 13.0339261,13.8056267 C12.8082592,12.6729164 13.7542372,11.9563296 14.5139835,12.0091349 Z M6.99036747,14.998414 C6.71307322,14.9985054 6.43571729,14.9957039 6.15848472,14.9999366 C6.05161957,15.0015505 5.99715381,14.9728653 6.00011457,14.8551405 C6.00615947,14.6169805 6.00526507,14.378516 6.00051551,14.1402952 C5.99835662,14.0331978 6.04412513,13.9995795 6.14735101,14.0000972 C6.71736016,14.0028073 7.28740017,14.0030814 7.85737848,14.0000058 C7.9652614,13.9994272 8.00171583,14.0419982 7.99986535,14.1445279 C7.99560925,14.3827792 7.99517747,14.6211828 7.99992704,14.8594036 C8.00208593,14.966501 7.95640994,15.0010024 7.8530607,14.9996321 C7.56555797,14.9958257 7.27793188,14.9983227 6.99036747,14.998414 Z M9.99036747,14.998414 C9.71307322,14.9985054 9.43571729,14.9957039 9.15848472,14.9999366 C9.05161957,15.0015505 8.99715381,14.9728653 9.00011457,14.8551405 C9.00615947,14.6169805 9.00526507,14.378516 9.00051551,14.1402952 C8.99835662,14.0331978 9.04412513,13.9995795 9.14735101,14.0000972 C9.71736016,14.0028073 10.2874002,14.0030814 10.8573785,14.0000058 C10.9652614,13.9994272 11.0017158,14.0419982 10.9998654,14.1445279 C10.9956093,14.3827792 10.9951775,14.6211828 10.999927,14.8594036 C11.0020859,14.966501 10.9564099,15.0010024 10.8530607,14.9996321 C10.565558,14.9958257 10.2779319,14.9983227 9.99036747,14.998414 Z" id="Combined-Shape-Copy"></path>
        </g>
    </g>
</svg>