<?xml version="1.0" encoding="UTF-8"?>
<svg width="16px" height="16px" viewBox="0 0 16 16" version="1.1" xmlns="http://www.w3.org/2000/svg" xmlns:xlink="http://www.w3.org/1999/xlink">
    <!-- Generator: Sketch 46 (44423) - http://www.bohemiancoding.com/sketch -->
    <title>Group 13</title>
    <desc>Created with Sketch.</desc>
    <defs>
        <circle id="path-1" cx="8" cy="10" r="8"></circle>
    </defs>
    <g id="Page-1" stroke="none" stroke-width="1" fill="none" fill-rule="evenodd">
        <g id="55.1-Tutor-|-Dialogues" transform="translate(-922.000000, -700.000000)">
            <g id="Group-13" transform="translate(922.000000, 698.000000)">
                <g id="Oval-50">
                    <use fill="#00A4F1" fill-rule="evenodd" xlink:href="#path-1"></use>
                    <circle stroke="#00A4F1" stroke-width="2" cx="8" cy="10" r="7"></circle>
                </g>
                <path d="M9.15429688,12.5029297 L10.6240234,12.5029297 C10.9384781,12.5029297 11.1617832,12.5598953 11.2939453,12.6738281 C11.4261074,12.787761 11.4921875,12.9768867 11.4921875,13.2412109 C11.4921875,13.5100925 11.4249681,13.7037754 11.2905273,13.8222656 C11.1560866,13.9407558 10.9339208,14 10.6240234,14 L6.00292969,14 C5.6930323,14 5.47086656,13.9407558 5.33642578,13.8222656 C5.201985,13.7037754 5.13476562,13.5100925 5.13476562,13.2412109 C5.13476562,12.9768867 5.19970638,12.787761 5.32958984,12.6738281 C5.45947331,12.5598953 5.68391768,12.5029297 6.00292969,12.5029297 L7.47265625,12.5029297 L7.47265625,9.18066406 L6.70019531,9.18066406 C6.39485524,9.18066406 6.17610743,9.12255917 6.04394531,9.00634766 C5.91178319,8.89013614 5.84570312,8.69759249 5.84570312,8.42871094 C5.84570312,8.15982938 5.90950457,7.96842505 6.03710938,7.85449219 C6.16471418,7.74055933 6.38574062,7.68359375 6.70019531,7.68359375 L8.7578125,7.68359375 C8.8854173,7.68359375 8.9833981,7.70979792 9.05175781,7.76220703 C9.12011753,7.81461615 9.15429688,7.88639277 9.15429688,7.97753906 L9.15429688,12.5029297 Z M8.16992188,4.59375 C8.50260583,4.59375 8.72363227,4.65755145 8.83300781,4.78515625 C8.94238336,4.91276105 8.99707031,5.21809654 8.99707031,5.70117188 C8.99707031,6.16601795 8.94807992,6.45426376 8.85009766,6.56591797 C8.7521154,6.67757217 8.52083516,6.73339844 8.15625,6.73339844 C7.80077947,6.73339844 7.57177786,6.68099011 7.46923828,6.57617188 C7.36669871,6.47135364 7.31542969,6.26172032 7.31542969,5.94726562 C7.31542969,5.36392937 7.36783802,4.99251382 7.47265625,4.83300781 C7.57747448,4.67350181 7.80989403,4.59375 8.16992188,4.59375 Z" id="i" fill="#FFFFFF"></path>
            </g>
        </g>
    </g>
</svg>