<svg width="26" height="26" viewBox="0 0 26 26" xmlns="http://www.w3.org/2000/svg"><title>Group 19</title><g transform="translate(1 1)" fill="none" fill-rule="evenodd"><circle stroke="#FFF" stroke-width="2" cx="12" cy="12" r="12"/><path d="M11.82 8.377c-.494 0-.851-.095-1.07-.285-.22-.19-.33-.457-.33-.803 0-.362.14-.66.42-.894.28-.233.678-.35 1.194-.35.528 0 .901.1 1.12.3.22.201.33.464.33.788 0 .357-.132.653-.395.89-.264.235-.687.354-1.269.354zm1.508 8.238h.972c.093.181.14.384.14.61 0 .192-.04.326-.12.403-.08.077-.234.116-.465.116H9.901a1.74 1.74 0 0 1-.14-.651c0-.17.038-.293.115-.367.077-.074.2-.111.37-.111h.676a57.78 57.78 0 0 0 .041-2.25c0-1.213-.01-2.019-.028-2.417-.02-.398-.062-.69-.128-.873-.066-.184-.168-.3-.305-.346-.137-.047-.338-.07-.601-.07a1.011 1.011 0 0 1-.14-.536c0-.307.126-.497.379-.568.252-.072.766-.107 1.54-.107.582 0 .98.022 1.19.065.212.044.333.13.363.26.03.129.045.309.045.54v4.053c.006.796.022 1.546.05 2.249z" fill="#FFF"/></g></svg>